<svg width="32" height="32" viewBox="0 0 32 32" xmlns="http://www.w3.org/2000/svg">
  <defs>
    <linearGradient id="iconGrad" x1="0" y1="0" x2="1" y2="1">
      <stop offset="0%" stop-color="#00d4ff"/>
      <stop offset="100%" stop-color="#0066ff"/>
    </linearGradient>
    <filter id="glow">
      <feGaussianBlur stdDeviation="1" result="blur"/>
      <feMerge><feMergeNode in="blur"/><feMergeNode in="SourceGraphic"/></feMerge>
    </filter>
  </defs>

  <polygon points="16,2 27,8.5 27,23.5 16,30 5,23.5 5,8.5" fill="url(#iconGrad)" opacity="0.12"/>
  <polygon points="16,2 27,8.5 27,23.5 16,30 5,23.5 5,8.5" fill="none" stroke="url(#iconGrad)" stroke-width="1.5"/>
  <line x1="9" y1="12" x2="9" y2="24" stroke="#1a3a5c" stroke-width="0.8"/>
  <rect x="7" y="15" width="4" height="5" fill="#ff4466" rx="0.5"/>
  <line x1="15" y1="9" x2="15" y2="23" stroke="#1a3a5c" stroke-width="0.8"/>
  <rect x="13" y="11" width="4" height="7" fill="#00e676" rx="0.5"/>
  <line x1="21" y1="10" x2="21" y2="22" stroke="#1a3a5c" stroke-width="0.8"/>
  <rect x="19" y="12" width="4" height="9" fill="#00e676" rx="0.5"/>
  <polyline points="9,13 15,11 21,9" fill="none" stroke="#00d4ff" stroke-width="1.5" filter="url(#glow)"/>
  <circle cx="9" cy="13" r="1.2" fill="#00d4ff"/>
  <circle cx="15" cy="11" r="1.2" fill="#00d4ff"/>
  <circle cx="21" cy="9" r="1.2" fill="#00d4ff"/>
</svg>
